<svg width="176.999878" height="50.873047" viewBox="0 0 177 50.873" fill="none" xmlns="http://www.w3.org/2000/svg" xmlns:xlink="http://www.w3.org/1999/xlink">
	<desc>
			Created with Pixso.
	</desc>
	<defs/>
	<path id="Vector" d="M97.464 5.55322L97.464 1.72412C97.4683 1.14111 97.9071 0.751465 98.438 0.751465L115.59 0.751465C116.142 0.751465 116.58 1.15234 116.58 1.7207L116.58 5.01025C116.574 5.55322 116.11 6.27539 115.289 7.41895L106.397 20.1177C109.696 20.0405 113.188 20.5337 116.186 22.2222C116.861 22.604 117.045 23.1606 117.096 23.7144L117.096 27.8086C117.096 28.3745 116.479 29.0283 115.836 28.688C110.551 25.9126 103.545 25.6108 97.7078 28.7212C97.1097 29.041 96.4875 28.4004 96.4875 27.8345L96.4875 23.9395C96.4875 23.3184 96.4974 22.2539 97.1245 21.3066L107.417 6.52148L98.4569 6.52148C97.9095 6.521 97.4703 6.13037 97.464 5.55322ZM34.8942 29.4941L29.675 29.4941C29.1785 29.4639 28.7783 29.0898 28.7415 28.6123L28.7462 1.78955C28.7462 1.25488 29.1932 0.82373 29.752 0.82373L34.6118 0.821777C35.1211 0.849609 35.5281 1.23486 35.5615 1.72412L35.5615 5.22754L35.6571 5.22754C36.9208 1.84033 39.3113 0.257324 42.5233 0.257324C45.7896 0.257324 47.8298 1.84033 49.2954 5.22754C50.563 1.84033 53.4344 0.257324 56.5066 0.257324C58.7 0.257324 61.0846 1.16211 62.5482 3.19385C64.2065 5.4458 63.8638 8.72461 63.8638 11.5972L63.8617 28.5273C63.8617 29.0649 63.4067 29.4941 62.853 29.4941L57.642 29.4941C57.116 29.4634 56.705 29.0469 56.705 28.5327L56.7029 14.3091C56.7029 13.1816 56.7982 10.3628 56.5543 9.28516C56.1617 7.47998 54.9934 6.97217 53.4834 6.97217C52.2224 6.97217 50.9042 7.81934 50.3665 9.17432C49.8333 10.5303 49.8796 12.7827 49.8796 14.3091L49.8796 28.5269C49.8796 29.0645 49.4287 29.4932 48.8728 29.4932L43.6608 29.4932C43.136 29.4629 42.7224 29.0459 42.7224 28.5322L42.7158 14.3086C42.7158 11.3149 43.2056 6.91553 39.5049 6.91553C35.7504 6.91553 35.8976 11.209 35.8976 14.3086L35.8955 28.5259C35.895 29.0654 35.453 29.4941 34.8942 29.4941ZM131.352 0.257324C139.09 0.257324 143.288 6.91699 143.288 15.3823C143.288 23.5615 138.651 30.0605 131.352 30.0605C123.749 30.0605 119.605 23.3887 119.605 15.0967C119.605 6.74902 123.796 0.257324 131.352 0.257324ZM131.401 5.72949C127.547 5.72949 127.303 10.9844 127.303 14.2476C127.303 17.5225 127.254 24.5181 131.351 24.5181C135.386 24.5181 135.578 18.8765 135.578 15.4429C135.578 13.1821 135.483 10.4746 134.799 8.32812C134.216 6.4624 133.047 5.72949 131.401 5.72949ZM153.329 29.4941L148.125 29.4941C147.599 29.4639 147.189 29.0469 147.189 28.5327L147.178 1.7002C147.224 1.2085 147.656 0.823242 148.182 0.823242L153.029 0.821289C153.487 0.845703 153.862 1.15771 153.956 1.57471L153.956 5.6748L154.055 5.6748C155.515 2.00928 157.553 0.256836 161.159 0.256836C163.5 0.256836 165.795 1.10498 167.256 3.42188C168.612 5.55957 168.612 9.1748 168.612 11.769L168.612 28.647C168.552 29.1274 168.124 29.4941 167.622 29.4941L162.382 29.4941C161.906 29.4658 161.511 29.1045 161.451 28.647L161.451 14.0845C161.451 11.1543 161.797 6.85889 158.185 6.85889C156.916 6.85889 155.76 7.70801 155.172 9.00732C154.442 10.6445 154.347 12.2764 154.347 14.0845L154.347 28.5273C154.333 29.0654 153.885 29.4941 153.329 29.4941ZM24.6664 24.5728C23.7169 23.249 22.7014 22.1807 22.7014 19.7319L22.7014 11.5903C22.7014 8.146 22.9478 4.97998 20.4054 2.60449C18.4014 0.678711 15.0829 0 12.5416 0C7.57446 0 2.03552 1.85596 0.871948 7.99951C0.748169 8.65674 1.22339 8.99756 1.65173 9.09424L6.71021 9.64307C7.18042 9.61865 7.52576 9.14941 7.61646 8.67969C8.05164 6.56104 9.82263 5.54053 11.8132 5.54053C12.8833 5.54053 14.104 5.93896 14.7418 6.8999C15.4739 7.97217 15.3756 9.44629 15.3756 10.6904L15.3756 11.3633C12.3467 11.7046 8.39111 11.9297 5.56372 13.1753C2.29211 14.5928 0 17.4722 0 21.7183C0 27.1519 3.41516 29.8667 7.80554 29.8667C11.5239 29.8667 13.5463 28.9883 16.4141 26.0664C17.3624 27.4395 17.672 28.1025 19.4043 29.5508C19.7939 29.7573 20.2913 29.7412 20.6382 29.4277L20.6498 29.4404C21.6927 28.5098 23.5897 26.8613 24.65 25.9683C25.0734 25.6167 24.9985 25.0464 24.6664 24.5728ZM14.3977 22.2256C13.5663 23.689 12.2512 24.5952 10.7874 24.5952C8.78418 24.5952 7.61304 23.0669 7.61304 20.8105C7.61304 16.3628 11.6024 15.5557 15.3763 15.5557L15.3763 16.6841C15.3763 18.7148 15.4241 20.4136 14.3977 22.2256ZM93.0834 24.5728C92.1266 23.249 91.1129 22.1807 91.1129 19.7319L91.1129 11.5903C91.1129 8.146 91.3574 4.97998 88.8147 2.60449C86.8197 0.678711 83.4965 0 80.9602 0C75.9941 0 70.452 1.85596 69.2896 7.99951C69.1656 8.65674 69.6409 8.99756 70.0685 9.09424L75.1238 9.64307C75.6013 9.61865 75.9441 9.14941 76.0332 8.67969C76.4709 6.56104 78.2344 5.54053 80.2278 5.54053C81.3005 5.54053 82.5239 5.93896 83.1554 6.8999C83.8856 7.97217 83.7881 9.44629 83.7881 10.6904L83.7881 11.3633C80.7631 11.7046 76.8097 11.9297 73.9805 13.1753C70.7089 14.5928 68.4136 17.4722 68.4136 21.7183C68.4136 27.1519 71.8267 29.8667 76.223 29.8667C79.9318 29.8667 81.9648 28.9883 84.8295 26.0664C85.7758 27.4395 86.0876 28.1025 87.8197 29.5508C88.2123 29.7573 88.7046 29.7412 89.0497 29.4277L89.061 29.4404C90.1063 28.5098 92.0028 26.8613 93.0686 25.9683C93.4933 25.6167 93.4205 25.0464 93.0834 24.5728ZM82.811 22.2256C81.9862 23.689 80.6659 24.5952 79.2007 24.5952C77.1975 24.5952 76.0312 23.0669 76.0312 20.8105C76.0312 16.3628 80.0155 15.5557 83.7886 15.5557L83.7886 16.6841C83.7886 18.7148 83.8392 20.4136 82.811 22.2256Z" fill="#F3F3F3" fill-opacity="1.000000" fill-rule="nonzero"/>
	<path id="Vector" d="M104.433 39.917C94.4767 47.0308 80.6088 50.873 68.3738 50.873C51.2356 50.873 35.9598 44.6631 24.1904 34.0234C23.1018 33.0396 23.8047 31.8853 25.1582 32.6641C37.9617 40.0762 53.3059 44.4126 69.4059 44.4126C80.2634 44.4126 91.7957 42.248 102.755 37.5811C105.151 36.5586 106.144 38.6929 104.433 39.917Z" fill="#F9A51B" fill-opacity="1.000000" fill-rule="nonzero"/>
	<path id="Vector" d="M108.687 35.1157C107.428 33.5054 100.397 34.3545 97.2379 34.7275C96.2872 34.8447 96.1323 34.0073 96.999 33.4019C102.607 29.4775 111.8 30.6201 112.863 31.9155C113.938 33.248 112.579 42.4814 107.325 46.8887C106.515 47.5713 105.755 47.2012 106.111 46.3081C107.29 43.3467 109.94 36.7202 108.687 35.1157Z" fill="#F9A51B" fill-opacity="1.000000" fill-rule="nonzero"/>
	<path id="Vector" d="M174.548 25.1143C175.136 25.1143 175.636 25.3213 176.048 25.7354C176.46 26.1455 176.668 26.6445 176.668 27.229C176.668 27.8164 176.461 28.3164 176.048 28.7295C175.637 29.1436 175.138 29.3511 174.548 29.3511C173.96 29.3511 173.461 29.1436 173.05 28.7295C172.64 28.3164 172.435 27.8159 172.435 27.229C172.435 26.6445 172.64 26.1455 173.054 25.7354C173.467 25.3213 173.966 25.1143 174.548 25.1143ZM177 27.2236C177 26.5474 176.759 25.9712 176.282 25.4956C175.804 25.0195 175.223 24.7812 174.546 24.7812C173.872 24.7812 173.298 25.0195 172.819 25.4956C172.342 25.9736 172.102 26.5493 172.102 27.2236C172.102 27.9038 172.339 28.4839 172.813 28.9614C173.289 29.4434 173.868 29.6841 174.545 29.6841C175.223 29.6841 175.803 29.4434 176.281 28.9614C176.759 28.4829 177 27.9033 177 27.2236ZM175.197 26.6943C175.197 26.8965 175.104 27.0337 174.917 27.1079C174.813 27.1484 174.661 27.1665 174.459 27.1665L174.025 27.1665L174.025 26.207L174.434 26.207C174.702 26.207 174.894 26.2378 175.017 26.3042C175.136 26.3711 175.197 26.4995 175.197 26.6943ZM173.562 25.874L173.562 28.5562L174.025 28.5562L174.025 27.499L174.404 27.499C174.66 27.499 174.838 27.5288 174.939 27.5845C175.112 27.687 175.197 27.8892 175.197 28.2007L175.197 28.4131L175.207 28.499L175.213 28.5293C175.217 28.5366 175.219 28.5474 175.221 28.5562L175.661 28.5562L175.644 28.522C175.63 28.499 175.623 28.4541 175.619 28.3833C175.613 28.312 175.613 28.2461 175.613 28.1831L175.613 27.9883C175.613 27.8525 175.562 27.7134 175.467 27.5703C175.369 27.4287 175.217 27.3413 175.006 27.3091C175.172 27.2827 175.301 27.2397 175.395 27.1792C175.572 27.0645 175.661 26.8882 175.661 26.6494C175.661 26.313 175.52 26.0864 175.241 25.9702C175.085 25.9067 174.84 25.8745 174.505 25.8745L173.562 25.874Z" fill="#F3F3F3" fill-opacity="1.000000" fill-rule="nonzero"/>
</svg>
