<svg width="159.000244" height="46.081543" viewBox="0 0 159 46.0815" fill="none" xmlns="http://www.w3.org/2000/svg" xmlns:xlink="http://www.w3.org/1999/xlink">
	<desc>
			Created with Pixso.
	</desc>
	<defs/>
	<path id="Vector" d="M137.127 44.4692L130.961 37.5562L124.857 44.4692L112.006 44.4692L124.569 30.354L112.006 16.2393L125.259 16.2393L131.482 23.0952L137.471 16.2393L150.262 16.2393L137.76 30.2964L150.434 44.4678L137.127 44.4692ZM87.3235 44.4692L87.3235 0L112.006 0L112.006 9.91211L97.778 9.91211L97.778 16.2393L112.006 16.2393L112.006 25.7749L97.778 25.7749L97.778 34.5298L112.006 34.5298L112.006 44.4692L87.3235 44.4692Z" fill="#D9782D" fill-opacity="1.000000" fill-rule="evenodd"/>
	<path id="Vector" d="M76.9126 0L76.9126 18.1987L76.798 18.1987C74.4937 15.5483 71.6133 14.6265 68.2725 14.6265C61.4261 14.6265 56.2699 19.2822 54.4609 25.4336C52.3955 18.6558 47.0723 14.501 39.1797 14.501C32.7687 14.501 27.7073 17.3784 25.0647 22.0664L25.0647 16.2393L11.8129 16.2393L11.8129 9.91211L26.2725 9.91211L26.2725 0L0 0L0 44.4692L11.8129 44.4692L11.8129 25.7749L23.5852 25.7749C23.2224 27.2119 23.0414 28.689 23.0463 30.1709C23.0463 39.4468 30.1338 45.9561 39.1786 45.9561C46.7832 45.9561 51.7944 42.3853 54.4457 35.876L44.3229 35.876C42.9547 37.8335 41.9149 38.4126 39.1786 38.4126C36.0035 38.4126 33.2672 35.6445 33.2672 32.3604L53.8794 32.3604C54.7729 39.7275 60.5118 46.0815 68.3871 46.0815C71.7856 46.0815 74.8973 44.4111 76.798 41.5874L76.9126 41.5874L76.9126 44.4692L87.3234 44.4692L87.3234 0L76.9126 0ZM33.5957 25.9082C34.2524 23.0854 36.4421 21.2383 39.1786 21.2383C42.1876 21.2383 44.2683 23.0288 44.8149 25.9082L33.5957 25.9082ZM70.5931 37.6992C66.7549 37.6992 64.3708 34.1216 64.3708 30.3882C64.3708 26.396 66.4438 22.5586 70.5931 22.5586C74.8951 22.5586 76.6071 26.396 76.6071 30.3882C76.6071 34.1719 74.7915 37.6992 70.5931 37.6992Z" fill="#F3F3F3" fill-opacity="1.000000" fill-rule="evenodd"/>
	<path id="Vector" d="M153.281 41.6035C153.282 41.228 153.357 40.856 153.501 40.5088C153.646 40.1621 153.857 39.8472 154.124 39.582C154.39 39.3169 154.706 39.1069 155.054 38.9644C155.401 38.8213 155.774 38.7485 156.149 38.7495C156.524 38.7495 156.895 38.8232 157.241 38.9668C157.587 39.1104 157.902 39.3208 158.166 39.5854C158.431 39.8506 158.641 40.1655 158.784 40.5117C158.927 40.8579 159.001 41.229 159 41.6035C159.002 41.9795 158.93 42.3521 158.788 42.6997C158.646 43.0474 158.436 43.3633 158.171 43.6299C157.906 43.896 157.591 44.1074 157.244 44.252C156.897 44.396 156.525 44.4702 156.149 44.4697C155.773 44.4712 155.399 44.3979 155.051 44.2544C154.702 44.1108 154.386 43.8999 154.119 43.6333C153.852 43.3672 153.641 43.0508 153.497 42.7021C153.354 42.354 153.28 41.9805 153.281 41.6035ZM158.501 41.6035C158.5 40.9805 158.252 40.3828 157.812 39.9424C157.371 39.5015 156.774 39.2534 156.151 39.2524C155.525 39.2515 154.925 39.498 154.482 39.939C154.038 40.3799 153.788 40.9785 153.785 41.6035C153.785 42.9121 154.842 43.9692 156.151 43.9692C156.46 43.9683 156.767 43.9062 157.052 43.7871C157.338 43.6675 157.598 43.4932 157.816 43.2734C158.034 43.0537 158.207 42.7935 158.324 42.5068C158.442 42.2202 158.502 41.9136 158.501 41.6035ZM155.541 41.7925L155.541 43.2471L155.017 43.2471L155.017 39.8853L156.104 39.8853C156.719 39.8853 157.358 40.0532 157.358 40.814C157.358 41.2002 157.124 41.5054 156.672 41.5981L156.672 41.6147C157.139 41.7051 157.192 41.9102 157.243 42.2749C157.29 42.5923 157.328 42.9424 157.443 43.248L156.772 43.248C156.734 43.0591 156.683 42.8452 156.659 42.6455C156.621 42.3564 156.621 42.0903 156.467 41.9312C156.339 41.7935 156.165 41.8101 155.981 41.7935L155.541 41.7935L155.541 41.7925ZM156.094 41.271C156.59 41.2524 156.704 41.0474 156.704 40.7896C156.704 40.54 156.59 40.4092 156.173 40.4092L155.541 40.4092L155.541 41.271L156.094 41.271Z" fill="#D9782D" fill-opacity="1.000000" fill-rule="evenodd"/>
</svg>
