<svg width="146.000000" height="41.000000" viewBox="0 0 146 41" fill="none" xmlns="http://www.w3.org/2000/svg" xmlns:xlink="http://www.w3.org/1999/xlink">
	<desc>
			Created with Pixso.
	</desc>
	<defs>
		<clipPath id="clip126_317">
			<rect id="Ресурс 21 1" width="146.000000" height="41.000000" fill="white" fill-opacity="0"/>
		</clipPath>
	</defs>
	<rect id="Ресурс 21 1" width="146.000000" height="41.000000" fill="#FFFFFF" fill-opacity="0"/>
	<g clip-path="url(#clip126_317)">
		<path id="by NAPA" d="M5.15625 37.3096Q5.15625 38.5205 4.59961 39.2554Q4.04297 39.9902 3.10547 39.9902Q2.10449 39.9902 1.55762 39.2822L1.51367 39.8926L0.683594 39.8926L0.683594 32.3926L1.58691 32.3926L1.58691 35.1904Q2.13379 34.5117 3.0957 34.5117Q4.05762 34.5117 4.60693 35.2393Q5.15625 35.9668 5.15625 37.2314L5.15625 37.3096ZM4.25293 37.207Q4.25293 36.2842 3.89648 35.7812Q3.54004 35.2783 2.87109 35.2783Q1.97754 35.2783 1.58691 36.1084L1.58691 38.3936Q2.00195 39.2236 2.88086 39.2236Q3.53027 39.2236 3.8916 38.7207Q4.25293 38.2178 4.25293 37.207ZM7.96875 38.5693L9.19922 34.6094L10.166 34.6094L8.04199 40.708Q7.54883 42.0264 6.47461 42.0264L6.30371 42.0117L5.9668 41.9482L5.9668 41.2158L6.21094 41.2354Q6.66992 41.2354 6.92627 41.0498Q7.18262 40.8643 7.34863 40.3711L7.54883 39.834L5.66406 34.6094L6.65039 34.6094L7.96875 38.5693ZM19.0527 39.8926L18.1104 39.8926L14.5312 34.4141L14.5312 39.8926L13.5889 39.8926L13.5889 32.7832L14.5312 32.7832L18.1201 38.2861L18.1201 32.7832L19.0527 32.7832L19.0527 39.8926ZM24.7314 38.0371L21.7529 38.0371L21.084 39.8926L20.1172 39.8926L22.832 32.7832L23.6523 32.7832L26.3721 39.8926L25.4102 39.8926L24.7314 38.0371ZM22.0361 37.2656L24.4531 37.2656L23.2422 33.9404L22.0361 37.2656ZM28.2666 37.1094L28.2666 39.8926L27.3291 39.8926L27.3291 32.7832L29.9512 32.7832Q31.1182 32.7832 31.7798 33.3789Q32.4414 33.9746 32.4414 34.9561Q32.4414 35.9912 31.7944 36.5503Q31.1475 37.1094 29.9414 37.1094L28.2666 37.1094ZM28.2666 36.3428L29.9512 36.3428Q30.7031 36.3428 31.1035 35.9888Q31.5039 35.6348 31.5039 34.9658Q31.5039 34.3311 31.1035 33.9502Q30.7031 33.5693 30.0049 33.5547L28.2666 33.5547L28.2666 36.3428ZM36.8896 38.0371L33.9111 38.0371L33.2422 39.8926L32.2754 39.8926L34.9902 32.7832L35.8105 32.7832L38.5303 39.8926L37.5684 39.8926L36.8896 38.0371ZM34.1943 37.2656L36.6113 37.2656L35.4004 33.9404L34.1943 37.2656Z" fill="#AFAFAF" fill-opacity="1.000000" fill-rule="evenodd"/>
		<path id="Vector" d="M50.4895 28.8555L55.823 40.2729L54.5891 40.2729L52.7913 36.5156L47.8555 36.5156L46.0732 40.2729L44.8003 40.2729L50.2012 28.8555L50.4895 28.8555ZM50.3467 31.2817L48.3853 35.418L52.2952 35.418L50.3467 31.2817Z" fill="#AFAFAF" fill-opacity="1.000000" fill-rule="nonzero"/>
		<path id="Vector" d="M57.6338 28.8555L58.7769 28.8555L58.7769 35.75C58.7649 36.2612 58.7805 36.772 58.8237 37.2812C58.8672 37.6831 59.0071 38.0684 59.2314 38.4048C59.4768 38.7393 59.8066 39.0029 60.1875 39.168C60.5923 39.3652 61.0359 39.4697 61.4863 39.4741C61.8625 39.4741 62.2341 39.3916 62.575 39.2324C62.9116 39.0786 63.209 38.8506 63.4453 38.5659C63.6907 38.2607 63.8679 37.9067 63.9648 37.5278C64.0664 36.9375 64.1057 36.3384 64.0818 35.7397L64.0818 28.8555L65.2065 28.8555L65.2065 35.75C65.2307 36.5854 65.1301 37.4199 64.9077 38.2256C64.6868 38.8823 64.2686 39.4551 63.7102 39.8657C63.0879 40.3408 62.3213 40.5884 61.5383 40.5664C60.699 40.5903 59.8721 40.3594 59.1665 39.9048C58.5322 39.498 58.0635 38.8789 57.8442 38.1582C57.7039 37.7144 57.6338 36.9102 57.6338 35.75L57.6338 28.8555Z" fill="#AFAFAF" fill-opacity="1.000000" fill-rule="nonzero"/>
		<path id="Vector" d="M66.8848 29.9741L66.8848 28.8555L73.1509 28.8555L73.1509 29.9741L70.6023 29.9741L70.6023 40.2783L69.4358 40.2783L69.4358 29.9741L66.8848 29.9741Z" fill="#AFAFAF" fill-opacity="1.000000" fill-rule="nonzero"/>
		<path id="Vector" d="M88.1172 40.2783L89.7539 28.8608L89.9409 28.8608L94.5884 38.2339L99.1946 28.8608L99.3762 28.8608L101.023 40.2783L99.9011 40.2783L98.771 32.1099L94.7288 40.2783L94.4353 40.2783L90.3435 32.0474L89.2212 40.2783L88.1172 40.2783Z" fill="#AFAFAF" fill-opacity="1.000000" fill-rule="nonzero"/>
		<path id="Vector" d="M115.971 29.9741L115.971 28.8555L122.237 28.8555L122.237 29.9741L119.689 29.9741L119.689 40.2783L118.522 40.2783L118.522 29.9741L115.971 29.9741Z" fill="#AFAFAF" fill-opacity="1.000000" fill-rule="nonzero"/>
		<path id="Vector" d="M123.723 28.8555L124.866 28.8555L124.866 40.2729L123.723 40.2729L123.723 28.8555Z" fill="#AFAFAF" fill-opacity="1.000000" fill-rule="nonzero"/>
		<path id="Vector" d="M126.615 28.8555L127.859 28.8555L131.649 37.6782L135.5 28.8555L136.744 28.8555L131.769 40.2729L131.509 40.2729L126.615 28.8555Z" fill="#AFAFAF" fill-opacity="1.000000" fill-rule="nonzero"/>
		<path id="Vector" d="M138.671 28.8555L145.221 28.8555L145.221 29.9741L139.814 29.9741L139.814 33.5547L145.179 33.5547L145.179 34.6709L139.814 34.6709L139.814 39.1602L145.179 39.1602L145.179 40.2783L138.671 40.2783L138.671 28.8555Z" fill="#AFAFAF" fill-opacity="1.000000" fill-rule="nonzero"/>
		<path id="Vector" d="M80.3442 28.8037C79.2026 28.7832 78.0808 29.1025 77.1216 29.7212C76.1624 30.3398 75.4094 31.23 74.9585 32.2773C74.5076 33.3252 74.3792 34.4834 74.5898 35.6045C74.8005 36.7256 75.3403 37.7583 76.1409 38.5718C76.9414 39.3848 77.9663 39.9414 79.0847 40.1709C80.2031 40.3999 81.3647 40.2915 82.4211 39.8589C83.4775 39.4263 84.3811 38.689 85.0166 37.7417C85.6521 36.7939 85.9907 35.6792 85.9893 34.5386C86.0012 33.0308 85.4133 31.5796 84.3547 30.5044C83.2964 29.4292 81.8538 28.8174 80.3442 28.8037ZM83.2461 33.8716L80.1936 39.3936C80.1851 39.4087 80.1716 39.4199 80.1558 39.4268C80.1399 39.4331 80.1223 39.4346 80.1057 39.4302C80.0894 39.4253 80.0745 39.4155 80.0642 39.4023C80.0537 39.3887 80.0481 39.3721 80.0481 39.3545L80.0298 35.5503L77.5073 35.5503C77.4934 35.5493 77.4802 35.5449 77.4685 35.5376C77.4568 35.5303 77.447 35.52 77.4404 35.5078C77.4336 35.4956 77.4302 35.4819 77.4299 35.4683C77.4299 35.4546 77.4333 35.4409 77.4397 35.4287L80.5571 29.6987C80.5649 29.6821 80.5786 29.6689 80.5955 29.6611C80.6121 29.6533 80.6311 29.6519 80.6489 29.6567C80.6667 29.6621 80.6821 29.6729 80.6924 29.6885C80.7029 29.7036 80.7073 29.7222 80.7053 29.7402L80.7261 33.7524L83.1733 33.7524C83.1865 33.7524 83.1992 33.7559 83.2107 33.7622C83.2224 33.7686 83.2322 33.7778 83.2393 33.7886C83.2463 33.7998 83.2507 33.8125 83.252 33.8252C83.2532 33.8384 83.2512 33.8516 83.2461 33.8638L83.2461 33.8716Z" fill="#AFAFAF" fill-opacity="1.000000" fill-rule="nonzero"/>
		<path id="Vector" d="M0 20.2407L0 0.495605L4.10986 0.495605C7.06616 0.495605 9.21191 0.733398 10.5474 1.20898C12.3994 1.8291 13.9854 3.06006 15.0442 4.69922C16.125 6.35498 16.6646 8.32812 16.6626 10.6187C16.7019 12.4419 16.2593 14.2437 15.3794 15.8423C14.6172 17.2529 13.4585 18.4102 12.0464 19.1714C10.6799 19.8843 8.76514 20.2407 6.30249 20.2407L0 20.2407ZM1.89648 18.3745L4.17993 18.3745C6.91284 18.3745 8.80859 18.2017 9.8667 17.856C11.2979 17.416 12.5354 16.5 13.3738 15.2607C14.2258 14.0049 14.6519 12.4688 14.6519 10.6523C14.6519 8.74902 14.1904 7.12207 13.2673 5.771C12.3467 4.42285 10.9812 3.43994 9.40942 2.99463C8.17993 2.61914 6.14478 2.43066 3.30444 2.42871L1.90674 2.42871L1.89648 18.3745Z" fill="#AFAFAF" fill-opacity="1.000000" fill-rule="nonzero"/>
		<path id="Vector" d="M32.4966 15.3984L34.0813 16.2314C33.6323 17.1558 33.0217 17.9922 32.2783 18.7017C31.6099 19.3198 30.8296 19.8052 29.9792 20.1318C29.0537 20.4712 28.0735 20.6377 27.0879 20.6221C24.7012 20.6221 22.835 19.8438 21.4893 18.2866C20.186 16.8247 19.4714 14.9321 19.4839 12.9746C19.4651 11.1768 20.0679 9.42676 21.1907 8.021C22.635 6.17529 24.5679 5.25293 26.989 5.25488C29.4829 5.25488 31.4746 6.19922 32.9641 8.08838C34.0242 9.42236 34.5627 11.0864 34.5801 13.0811L21.4089 13.0811C21.4434 14.7783 21.9856 16.1689 23.0352 17.2539C23.5344 17.7827 24.1392 18.2007 24.8105 18.481C25.4817 18.7612 26.2046 18.8975 26.9319 18.8809C27.6699 18.8823 28.4023 18.7544 29.0959 18.502C29.7527 18.2681 30.3611 17.9165 30.8911 17.4639C31.5269 16.8599 32.0681 16.1636 32.4966 15.3984ZM32.4966 11.4644C32.3059 10.5952 31.9321 9.77588 31.4001 9.06152C30.8867 8.43701 30.2349 7.94043 29.4961 7.61133C28.72 7.24902 27.874 7.06104 27.0176 7.06104C25.6533 7.03516 24.3303 7.52979 23.3184 8.44385C22.5649 9.11719 21.9951 10.124 21.6089 11.4644L32.4966 11.4644Z" fill="#AFAFAF" fill-opacity="1.000000" fill-rule="nonzero"/>
		<path id="Vector" d="M36.6897 5.63867L38.6926 5.63867L43.6001 16.2778L48.4502 5.63867L50.4661 5.63867L43.7742 20.2402L43.4233 20.2402L36.6897 5.63867Z" fill="#AFAFAF" fill-opacity="1.000000" fill-rule="nonzero"/>
		<path id="Vector" d="M65.6401 15.3984L67.2249 16.2314C66.7759 17.1558 66.1653 17.9922 65.4221 18.7017C64.7551 19.3193 63.9766 19.8047 63.1282 20.1318C62.2026 20.4712 61.2224 20.6377 60.2366 20.6221C57.8501 20.6221 55.9839 19.8438 54.6382 18.2866C53.3293 16.8271 52.6091 14.9346 52.6172 12.9746C52.5984 11.1768 53.2012 9.42676 54.324 8.021C55.7683 6.17529 57.7012 5.25293 60.1223 5.25488C62.6162 5.25488 64.6079 6.19922 66.0974 8.08838C67.1575 9.42236 67.696 11.0864 67.7134 13.0811L54.5552 13.0811C54.5881 14.7783 55.1301 16.1689 56.1814 17.2539C56.6807 17.7827 57.2856 18.2007 57.9568 18.481C58.6282 18.7612 59.3508 18.8975 60.0781 18.8809C60.8201 18.8813 61.5564 18.75 62.2527 18.4941C62.9094 18.2607 63.5178 17.9087 64.0479 17.4561C64.6782 16.8535 65.2151 16.1597 65.6401 15.3984ZM65.6401 11.4644C65.4495 10.5952 65.0757 9.77588 64.5439 9.06152C64.0305 8.43701 63.3787 7.94043 62.6396 7.61133C61.8599 7.24707 61.0093 7.05908 60.1484 7.06104C58.7839 7.03516 57.4612 7.52979 56.449 8.44385C55.6956 9.11719 55.1257 10.124 54.7395 11.4644L65.6401 11.4644Z" fill="#AFAFAF" fill-opacity="1.000000" fill-rule="nonzero"/>
		<path id="Vector" d="M70.9346 0L72.8181 0L72.8181 20.2407L70.9346 20.2407L70.9346 0Z" fill="#AFAFAF" fill-opacity="1.000000" fill-rule="nonzero"/>
		<path id="Vector" d="M83.6511 5.2627C84.7068 5.2373 85.7551 5.44287 86.7227 5.86523C87.6902 6.2876 88.5535 6.91602 89.2522 7.70703C90.5774 9.13867 91.3003 11.0249 91.2708 12.9746C91.2891 14.9692 90.522 16.8906 89.1353 18.3257C87.7134 19.8511 85.8845 20.6143 83.6484 20.6143C81.4126 20.6143 79.5793 19.8511 78.1489 18.3257C76.7637 16.8896 75.9978 14.9683 76.0161 12.9746C75.9868 11.0264 76.7095 9.14209 78.0344 7.7124C78.7346 6.91846 79.6003 6.28809 80.5706 5.86475C81.541 5.44141 82.5925 5.23584 83.6511 5.2627ZM83.6511 7.10254C82.895 7.0918 82.1448 7.23975 81.4492 7.53613C80.7534 7.83203 80.1274 8.27051 79.6113 8.82275C79.0642 9.37451 78.634 10.0303 78.3459 10.752C78.0581 11.4731 77.9187 12.2451 77.9358 13.0215C77.9326 14.0576 78.2012 15.0767 78.7151 15.9771C79.1985 16.8599 79.9182 17.5913 80.7935 18.0894C81.6721 18.5776 82.6611 18.834 83.6667 18.834C84.6724 18.834 85.6611 18.5776 86.54 18.0894C87.4146 17.5903 88.134 16.8594 88.6182 15.9771C89.1321 15.0767 89.4009 14.0576 89.3977 13.0215C89.4082 12.2412 89.2607 11.4673 88.9639 10.7456C88.667 10.0239 88.2268 9.37012 87.6699 8.82275C87.1558 8.27393 86.5332 7.8374 85.8413 7.5415C85.1497 7.24512 84.4038 7.0957 83.6511 7.10254Z" fill="#AFAFAF" fill-opacity="1.000000" fill-rule="nonzero"/>
		<path id="Vector" d="M94.7778 5.63867L96.6614 5.63867L96.6614 8.32422C97.3308 7.37012 98.2129 6.58398 99.2383 6.02783C100.237 5.50928 101.348 5.24658 102.473 5.26221C103.468 5.24854 104.455 5.44092 105.373 5.82666C106.29 6.2124 107.118 6.78369 107.803 7.50439C108.52 8.20703 109.085 9.04785 109.466 9.97607C109.847 10.9038 110.035 11.8994 110.02 12.9019C110.038 13.915 109.852 14.9214 109.473 15.8613C109.093 16.8013 108.528 17.6553 107.811 18.3721C106.733 19.4863 105.332 20.2329 103.805 20.5063C102.278 20.7798 100.704 20.5659 99.3059 19.895C98.2798 19.3721 97.3779 18.6348 96.6614 17.7339L96.6614 25.5884L94.7778 25.5884L94.7778 5.63867ZM102.312 7.07373C101.545 7.05762 100.784 7.20068 100.076 7.49414C99.3679 7.7876 98.7288 8.2251 98.1992 8.77832C97.6501 9.33643 97.2197 9.99951 96.9331 10.7275C96.6465 11.4556 96.5098 12.2339 96.5315 13.0161C96.5149 14.0601 96.771 15.0903 97.2744 16.0054C97.7729 16.8936 98.5122 17.6226 99.4072 18.1099C100.299 18.6201 101.31 18.8887 102.338 18.8882C103.344 18.894 104.332 18.6245 105.195 18.1099C106.088 17.583 106.822 16.8252 107.32 15.917C107.836 15.019 108.107 14.002 108.107 12.9668C108.107 11.9316 107.836 10.9146 107.32 10.0161C106.828 9.11963 106.101 8.37256 105.218 7.85449C104.335 7.33643 103.328 7.06641 102.304 7.07373L102.312 7.07373Z" fill="#AFAFAF" fill-opacity="1.000000" fill-rule="nonzero"/>
		<path id="Vector" d="M125.838 15.3984L127.425 16.2314C126.975 17.1548 126.365 17.9912 125.622 18.7017C124.953 19.3203 124.172 19.8052 123.321 20.1318C122.395 20.4712 121.415 20.6377 120.429 20.6221C118.044 20.6221 116.179 19.8438 114.833 18.2866C113.524 16.8271 112.805 14.9341 112.815 12.9746C112.796 11.1763 113.4 9.42627 114.524 8.021C115.969 6.17529 117.902 5.25293 120.323 5.25488C122.813 5.25488 124.805 6.19922 126.298 8.08838C127.356 9.42236 127.894 11.0864 127.911 13.0811L114.75 13.0811C114.787 14.7783 115.33 16.1689 116.379 17.2539C116.878 17.7827 117.483 18.2007 118.155 18.481C118.826 18.7612 119.549 18.8975 120.276 18.8809C121.017 18.8809 121.752 18.75 122.448 18.4941C123.105 18.2603 123.714 17.9087 124.245 17.4561C124.876 16.8535 125.413 16.1597 125.838 15.3984ZM125.838 11.4644C125.649 10.5942 125.276 9.7749 124.742 9.06152C124.228 8.43701 123.576 7.94043 122.837 7.61133C122.058 7.24707 121.209 7.05908 120.349 7.06104C118.983 7.03369 117.657 7.52881 116.644 8.44385C115.891 9.11719 115.322 10.124 114.937 11.4644L125.838 11.4644Z" fill="#AFAFAF" fill-opacity="1.000000" fill-rule="nonzero"/>
		<path id="Vector" d="M146.013 0L146.013 20.2407L144.158 20.2407L144.158 17.7339C143.438 18.6362 142.533 19.3735 141.503 19.8955C140.102 20.5659 138.526 20.7793 136.997 20.5059C135.468 20.2329 134.063 19.4863 132.982 18.3721C132.266 17.6548 131.702 16.8008 131.325 15.8608C130.947 14.9209 130.763 13.9146 130.784 12.9019C130.77 11.8984 130.96 10.9028 131.343 9.97461C131.725 9.04688 132.293 8.20654 133.011 7.50439C133.698 6.78418 134.526 6.21289 135.444 5.82715C136.363 5.44141 137.351 5.24902 138.347 5.2627C139.479 5.24609 140.598 5.50879 141.604 6.02783C142.627 6.58154 143.505 7.36865 144.166 8.32471L144.166 0L146.013 0ZM138.492 7.07373C137.469 7.06738 136.463 7.33691 135.581 7.854C134.698 8.37109 133.972 9.11621 133.478 10.0112C132.962 10.9092 132.69 11.9263 132.69 12.9619C132.69 13.9971 132.962 15.0146 133.478 15.9121C133.978 16.8213 134.714 17.5791 135.609 18.105C136.473 18.6187 137.461 18.8877 138.466 18.8833C139.493 18.8838 140.503 18.6152 141.394 18.105C142.286 17.6152 143.023 16.8862 143.522 16.0005C144.025 15.0854 144.281 14.0552 144.265 13.0112C144.286 12.2285 144.149 11.4502 143.862 10.7222C143.575 9.99365 143.144 9.33105 142.594 8.77344C142.065 8.22266 141.427 7.78711 140.721 7.49463C140.015 7.20215 139.256 7.05859 138.492 7.07373Z" fill="#AFAFAF" fill-opacity="1.000000" fill-rule="nonzero"/>
		<path id="Vector" d="M114.735 34.5674C114.735 37.7388 112.161 40.3101 108.986 40.3101C105.811 40.3101 103.237 37.7388 103.237 34.5674C103.237 31.396 105.811 28.8247 108.986 28.8247C112.161 28.8247 114.735 31.396 114.735 34.5674Z" fill="#AFAFAF" fill-opacity="1.000000" fill-rule="evenodd"/>
	</g>
</svg>
