<svg width="176.000000" height="48.000000" viewBox="0 0 176 48" fill="none" xmlns="http://www.w3.org/2000/svg" xmlns:xlink="http://www.w3.org/1999/xlink">
	<desc>
			Created with Pixso.
	</desc>
	<defs>
		<clipPath id="clip125_227">
			<rect id="J.B.-Hunt-Logo logo" width="176.000000" height="48.000000" fill="white" fill-opacity="0"/>
		</clipPath>
	</defs>
	<rect id="J.B.-Hunt-Logo logo" width="176.000000" height="48.000000" fill="#FFFFFF" fill-opacity="0"/>
	<g clip-path="url(#clip125_227)">
		<path id="path169" d="M175.724 47.7271L0.273193 47.7271L0.273193 0.272949L175.724 0.272949L175.724 47.7271Z" fill="#231F20" fill-opacity="1.000000" fill-rule="nonzero"/>
		<path id="path171" d="M175.726 47.7271L175.726 0.272949L0.274414 0.272949L0.274414 47.7271L175.726 47.7271Z" stroke="#000000" stroke-opacity="1.000000" stroke-width="0.572500"/>
		<path id="path173" d="M171.777 43.8008L4.21875 43.8008L4.21875 4.19922L171.777 4.19922L171.777 43.8008Z" fill="#FEDD03" fill-opacity="1.000000" fill-rule="nonzero"/>
		<path id="path175" d="M4.22021 4.19922L4.22021 43.8008L171.779 43.8008L171.779 4.19922L4.22021 4.19922Z" stroke="#FEDD03" stroke-opacity="1.000000" stroke-width="0.572500"/>
		<path id="path179" d="M12.5583 14.7451C13.5244 13.7837 17.3945 14.2812 20.4771 17.1436C23.5598 20.0054 23.8474 22.6641 23.2314 23.3999C22.614 24.1353 18.8748 23.605 16.655 21.8867C16.0784 21.5181 15.3389 20.8911 15.3389 20.8911C12.5991 18.4937 11.4077 16.1089 12.5583 14.7451Z" stroke="#000000" stroke-opacity="1.000000" stroke-width="0.720000"/>
		<path id="path183" d="M15.6672 21.0679C14.271 19.9639 11.1057 16.897 11.1465 13.9116C11.1465 12.9316 12.2563 11.1323 14.9697 11.2134C17.6821 11.2959 20.272 12.8896 23.8054 16.6934C27.3411 20.4966 36.7593 31.4014 38.0273 32.8438C39.7544 34.8062 40.5767 36.6055 47.8914 36.6055L161.17 36.6055" stroke="#000000" stroke-opacity="1.000000" stroke-width="0.720000"/>
		<path id="path187" d="M163.295 33.0942C162.329 34.0537 158.459 33.5566 155.375 30.6938C152.293 27.8325 152.006 25.1748 152.622 24.438C153.24 23.7036 156.979 24.2329 159.199 25.9512C159.774 26.3208 160.515 26.9468 160.515 26.9468C163.255 29.3457 164.446 31.73 163.295 33.0942Z" stroke="#000000" stroke-opacity="1.000000" stroke-width="0.720000"/>
		<path id="path191" d="M160.186 26.769C161.583 27.873 164.748 30.9409 164.707 33.9253C164.707 34.9077 163.598 36.7056 160.885 36.623C158.171 36.542 155.582 34.9468 152.048 31.1445C148.514 27.3428 139.094 16.4355 137.827 14.9941C136.1 13.0303 135.277 11.2324 127.962 11.2324L14.7646 11.2324" stroke="#000000" stroke-opacity="1.000000" stroke-width="0.720000"/>
		<path id="path195" d="M13.7783 14.293L21.177 14.293" stroke="#000000" stroke-opacity="1.000000" stroke-width="0.771250"/>
		<path id="path199" d="M22.656 23.6978L30.0547 23.6978" stroke="#000000" stroke-opacity="1.000000" stroke-width="0.771250"/>
		<path id="path203" d="M145.8 24.1353L153.526 24.1353" stroke="#000000" stroke-opacity="1.000000" stroke-width="0.771250"/>
		<path id="path207" d="M154.759 33.5391L162.159 33.5391" stroke="#000000" stroke-opacity="1.000000" stroke-width="0.771250"/>
		<path id="path211" d="M12.2983 16.9805L20.1355 16.9805" stroke="#000000" stroke-opacity="1.000000" stroke-width="0.515000"/>
		<path id="path215" d="M13.8325 19.3247L22.2175 19.3247" stroke="#000000" stroke-opacity="1.000000" stroke-width="0.515000"/>
		<path id="path219" d="M16.5183 21.7231L28.2461 21.7231" stroke="#000000" stroke-opacity="1.000000" stroke-width="0.515000"/>
		<path id="path223" d="M23.5332 22.4863L28.9038 22.4863" stroke="#000000" stroke-opacity="1.000000" stroke-width="0.515000"/>
		<path id="path227" d="M22.656 19.7607L26.3284 19.7607" stroke="#000000" stroke-opacity="1.000000" stroke-width="0.515000"/>
		<path id="path231" d="M20.5742 17.145L23.9158 17.145" stroke="#000000" stroke-opacity="1.000000" stroke-width="0.515000"/>
		<path id="path235" d="M19.0388 15.8906L22.8203 15.8906" stroke="#000000" stroke-opacity="1.000000" stroke-width="0.515000"/>
		<path id="path239" d="M11.1465 14.1763L13.5039 14.1763" stroke="#000000" stroke-opacity="1.000000" stroke-width="0.515000"/>
		<path id="path243" d="M11.2554 13.3271L19.9148 13.3271" stroke="#000000" stroke-opacity="1.000000" stroke-width="0.515000"/>
		<path id="path247" d="M11.8596 12.2935L18.6541 12.2935" stroke="#000000" stroke-opacity="1.000000" stroke-width="0.515000"/>
		<path id="path251" d="M19.8059 12.8921L135.552 12.8921" stroke="#000000" stroke-opacity="1.000000" stroke-width="0.515000"/>
		<path id="path255" d="M137.25 14.7925L21.8325 14.7925" stroke="#000000" stroke-opacity="1.000000" stroke-width="0.515000"/>
		<path id="path259" d="M23.314 16.0146L39.3384 16.0146" stroke="#000000" stroke-opacity="1.000000" stroke-width="0.515000"/>
		<path id="path263" d="M24.4097 17.3789L39.3386 17.3789" stroke="#000000" stroke-opacity="1.000000" stroke-width="0.515000"/>
		<path id="path267" d="M25.5049 18.6245L39.3372 18.6245" stroke="#000000" stroke-opacity="1.000000" stroke-width="0.515000"/>
		<path id="path271" d="M26.875 19.9805L39.3386 19.9805" stroke="#000000" stroke-opacity="1.000000" stroke-width="0.515000"/>
		<path id="path275" d="M27.8613 21.3276L39.3386 21.3276" stroke="#000000" stroke-opacity="1.000000" stroke-width="0.515000"/>
		<path id="path279" d="M29.2312 22.7593L39.3386 22.7593" stroke="#000000" stroke-opacity="1.000000" stroke-width="0.515000"/>
		<path id="path283" d="M30.7114 24.2163L39.3386 24.2163" stroke="#000000" stroke-opacity="1.000000" stroke-width="0.515000"/>
		<path id="path287" d="M32.7383 26.687L39.3386 26.687" stroke="#000000" stroke-opacity="1.000000" stroke-width="0.515000"/>
		<path id="path291" d="M34.5469 28.6479L39.3374 28.6479" stroke="#000000" stroke-opacity="1.000000" stroke-width="0.515000"/>
		<path id="path295" d="M36.136 30.5557L39.3374 30.5557" stroke="#000000" stroke-opacity="1.000000" stroke-width="0.515000"/>
		<path id="path299" d="M37.4521 32.082L39.3386 32.082" stroke="#000000" stroke-opacity="1.000000" stroke-width="0.515000"/>
		<path id="path303" d="M38.877 33.6392L154.678 33.6392" stroke="#000000" stroke-opacity="1.000000" stroke-width="0.515000"/>
		<path id="path307" d="M40.4126 35.0649L156.376 35.0649" stroke="#000000" stroke-opacity="1.000000" stroke-width="0.515000"/>
		<path id="path311" d="M160.598 27.1206L152.926 27.1206" stroke="#000000" stroke-opacity="1.000000" stroke-width="0.515000"/>
		<path id="path315" d="M162.624 29.2476L154.075 29.2476" stroke="#000000" stroke-opacity="1.000000" stroke-width="0.515000"/>
		<path id="path319" d="M135.901 17.0352L139.497 17.0352" stroke="#000000" stroke-opacity="1.000000" stroke-width="0.515000"/>
		<path id="path323" d="M140.977 18.7964L135.901 18.7964" stroke="#000000" stroke-opacity="1.000000" stroke-width="0.515000"/>
		<path id="path327" d="M143.115 21.1245L135.903 21.1245" stroke="#000000" stroke-opacity="1.000000" stroke-width="0.515000"/>
		<path id="path331" d="M144.486 22.5576L135.903 22.5576" stroke="#000000" stroke-opacity="1.000000" stroke-width="0.515000"/>
		<path id="path335" d="M145.332 23.688L135.904 23.688" stroke="#000000" stroke-opacity="1.000000" stroke-width="0.515000"/>
		<path id="path339" d="M152.378 25.8701L147.5 25.8701" stroke="#000000" stroke-opacity="1.000000" stroke-width="0.515000"/>
		<path id="path343" d="M152.596 26.8501L148.158 26.8501" stroke="#000000" stroke-opacity="1.000000" stroke-width="0.515000"/>
		<path id="path347" d="M153.145 27.668L148.98 27.668" stroke="#000000" stroke-opacity="1.000000" stroke-width="0.515000"/>
		<path id="path351" d="M147.664 26.4136L135.903 26.4136" stroke="#000000" stroke-opacity="1.000000" stroke-width="0.515000"/>
		<path id="path355" d="M149.255 27.9946L135.903 27.9946" stroke="#000000" stroke-opacity="1.000000" stroke-width="0.515000"/>
		<path id="path359" d="M150.076 28.9746L135.903 28.9746" stroke="#000000" stroke-opacity="1.000000" stroke-width="0.515000"/>
		<path id="path363" d="M135.903 30.23L151.226 30.23" stroke="#000000" stroke-opacity="1.000000" stroke-width="0.515000"/>
		<path id="path367" d="M151.939 31.2354L135.903 31.2354" stroke="#000000" stroke-opacity="1.000000" stroke-width="0.515000"/>
		<path id="path371" d="M153.254 32.4189L135.903 32.4189" stroke="#000000" stroke-opacity="1.000000" stroke-width="0.515000"/>
		<path id="path375" d="M153.638 32.6289L158.241 32.6289" stroke="#000000" stroke-opacity="1.000000" stroke-width="0.515000"/>
		<path id="path379" d="M152.76 31.7573L156.597 31.7573" stroke="#000000" stroke-opacity="1.000000" stroke-width="0.515000"/>
		<path id="path383" d="M151.993 30.9395L155.445 30.9395" stroke="#000000" stroke-opacity="1.000000" stroke-width="0.515000"/>
		<path id="path387" d="M151.117 30.0117L154.679 30.0117" stroke="#000000" stroke-opacity="1.000000" stroke-width="0.515000"/>
		<path id="path391" d="M156.159 34.8647L164.379 34.8647" stroke="#000000" stroke-opacity="1.000000" stroke-width="0.515000"/>
		<path id="path395" d="M51.8118 27.6743L51.8118 16.2793L48.6321 16.2793L48.6321 27.1279C48.6321 28.3823 47.207 28.9199 46.3308 28.9199C45.8372 28.9199 43.8091 28.1021 43.3179 27.666L42.0569 30.0645C42.0569 30.0645 44.1938 31.9175 46.6592 31.9175C49.126 31.9175 50.2766 30.7192 50.7163 30.228C51.1538 29.7378 51.8118 28.5459 51.8118 27.6743Z" fill="#000000" fill-opacity="1.000000" fill-rule="nonzero"/>
		<path id="path399" d="M54.9353 31.9458C55.9192 31.9458 56.7188 31.1519 56.7188 30.1719C56.7188 29.1929 55.9192 28.3999 54.9353 28.3999C53.9512 28.3999 53.1519 29.1929 53.1519 30.1719C53.1519 31.1519 53.9512 31.9458 54.9353 31.9458Z" fill="#000000" fill-opacity="1.000000" fill-rule="nonzero"/>
		<path id="path403" d="M74.499 31.9458C75.4829 31.9458 76.2825 31.1519 76.2825 30.1719C76.2825 29.1929 75.4829 28.3999 74.499 28.3999C73.5149 28.3999 72.7156 29.1929 72.7156 30.1719C72.7156 31.1519 73.5149 31.9458 74.499 31.9458Z" fill="#000000" fill-opacity="1.000000" fill-rule="nonzero"/>
		<path id="path407" d="M67.3418 22.5195C68.2419 22.5195 68.9695 21.7935 68.9695 20.9004C68.9695 20.0063 68.2419 19.2803 67.3418 19.2803L65.1785 19.2769L65.1785 22.5068L67.3418 22.5195ZM67.6523 28.8125C68.623 28.8125 69.4106 28.0771 69.4106 27.1089C69.4106 26.144 68.623 25.3599 67.6523 25.3599L65.1785 25.356L65.1785 28.8032L67.6523 28.8125ZM65.1785 31.5918L62 31.5918L62 16.0005L65.1785 16.0005C66.5354 16.0005 65.616 16.0049 68.0825 16.0049C71.1653 16.0049 72.3975 18.6626 72.3975 19.7261C72.3975 20.7896 72.6035 22.4258 70.5898 23.5703C72.522 24.5513 72.9739 25.9404 72.9739 27.2495C72.9739 28.5586 71.9048 31.5845 68.0012 31.5845L65.1785 31.5918Z" fill="#000000" fill-opacity="1.000000" fill-rule="nonzero"/>
		<path id="path411" d="M89.9819 16.2793L89.9819 22.8276L85.4321 22.8276L85.4321 16.2793L82.2549 16.2793L82.2549 31.8638L85.4321 31.8496L85.4321 25.5674L89.9819 25.5674L89.9819 31.8638L93.1604 31.8496L93.1604 16.2793L89.9819 16.2793Z" fill="#000000" fill-opacity="1.000000" fill-rule="nonzero"/>
		<path id="path415" d="M102.038 28.915C103.193 28.915 104.11 28.0234 104.11 26.874L104.107 16.2842L107.108 16.2842L107.108 25.6484C107.108 28.0474 107.381 29.2456 106.23 30.4448C105.079 31.6445 103.489 32.2715 102.038 32.2715C100.585 32.2715 98.9961 31.6445 97.8442 30.4448C96.6936 29.2456 96.968 28.0474 96.968 25.6484L96.968 16.2842L99.968 16.2842L99.9656 26.874C99.9656 28.0234 100.883 28.915 102.038 28.915Z" fill="#000000" fill-opacity="1.000000" fill-rule="nonzero"/>
		<path id="path419" d="M132.605 16.2856L122.823 16.2856L122.823 19.1899L126.113 19.1899L126.113 31.8638L129.319 31.8638L129.319 19.1899L132.605 19.1899L132.605 16.2856Z" fill="#000000" fill-opacity="1.000000" fill-rule="nonzero"/>
		<path id="path423" d="M117.645 31.8232L113.411 23.2363L113.411 31.8638L110.45 31.8638L110.45 16.2856L113.411 16.2856L117.5 23.8086L117.517 23.4604L117.517 16.2856L120.476 16.2856L120.476 31.8638L117.66 31.8638L117.645 31.8232Z" fill="#000000" fill-opacity="1.000000" fill-rule="nonzero"/>
	</g>
</svg>
