<svg width="28.000000" height="28.000000" viewBox="0 0 28 28" fill="none" xmlns="http://www.w3.org/2000/svg" xmlns:xlink="http://www.w3.org/1999/xlink">
	<desc>
			Created with Pixso.
	</desc>
	<defs>
		<clipPath id="clip62_644">
			<rect id="ig-instagram 1" width="28.000000" height="28.000000" fill="white" fill-opacity="0"/>
		</clipPath>
		<radialGradient id="paint_radial_62_645_0" cx="0.000000" cy="0.000000" r="1.000000" gradientUnits="userSpaceOnUse" gradientTransform="translate(7.53816 29.9093) rotate(-90) scale(27.3273 25.4227)">
			<stop stop-color="#FFDD55"/>
			<stop offset="0.100000" stop-color="#FFDD55"/>
			<stop offset="0.500000" stop-color="#FF543E"/>
			<stop offset="1.000000" stop-color="#C837AB"/>
		</radialGradient>
		<radialGradient id="paint_radial_62_646_0" cx="0.000000" cy="0.000000" r="1.000000" gradientUnits="userSpaceOnUse" gradientTransform="translate(-4.40765 2.19846) rotate(78.678) scale(12.2155 50.3642)">
			<stop stop-color="#3771C8"/>
			<stop offset="0.128000" stop-color="#3771C8"/>
			<stop offset="1.000000" stop-color="#6600FF" stop-opacity="0.000000"/>
		</radialGradient>
	</defs>
	<rect id="ig-instagram 1" width="28.000000" height="28.000000" fill="#FFFFFF" fill-opacity="0"/>
	<g clip-path="url(#clip62_644)">
		<path id="Vector" d="M14.0067 0.21212C8.24951 0.21212 6.56567 0.21806 6.2384 0.245213C5.05701 0.343422 4.32178 0.529453 3.52087 0.928242C2.90356 1.23476 2.41675 1.59006 1.93628 2.08812C1.0614 2.99642 0.531006 4.11388 0.339111 5.44218C0.245728 6.08703 0.218628 6.21854 0.213135 9.51236C0.210938 10.6103 0.213135 12.0553 0.213135 13.9934C0.213135 19.7462 0.219482 21.4283 0.24707 21.7549C0.342529 22.9046 0.522827 23.628 0.904541 24.4192C1.63428 25.9337 3.02783 27.0707 4.66968 27.4949C5.23816 27.6413 5.86597 27.7219 6.672 27.7601C7.01355 27.7749 10.4943 27.7855 13.9772 27.7855C17.4602 27.7855 20.9431 27.7813 21.2761 27.7643C22.2094 27.7204 22.7513 27.6477 23.3506 27.4928C25.0029 27.0665 26.3711 25.9465 27.1156 24.4107C27.49 23.6386 27.6798 22.8877 27.7657 21.798C27.7844 21.5604 27.7922 17.7726 27.7922 13.9898C27.7922 10.2064 27.7838 6.42558 27.7651 6.188C27.6781 5.08073 27.4883 4.33618 27.1018 3.54921C26.7847 2.905 26.4326 2.42391 25.9214 1.932C25.0092 1.0606 23.8934 0.5303 22.5638 0.338543C21.9197 0.245422 21.7914 0.217846 18.4951 0.21212L14.0067 0.21212Z" fill="url(#paint_radial_62_645_0)" fill-opacity="1.000000" fill-rule="nonzero"/>
		<path id="Vector" d="M14.0067 0.21212C8.24951 0.21212 6.56567 0.21806 6.2384 0.245213C5.05701 0.343422 4.32178 0.529453 3.52087 0.928242C2.90356 1.23476 2.41675 1.59006 1.93628 2.08812C1.0614 2.99642 0.531006 4.11388 0.339111 5.44218C0.245728 6.08703 0.218628 6.21854 0.213135 9.51236C0.210938 10.6103 0.213135 12.0553 0.213135 13.9934C0.213135 19.7462 0.219482 21.4283 0.24707 21.7549C0.342529 22.9046 0.522827 23.628 0.904541 24.4192C1.63428 25.9337 3.02783 27.0707 4.66968 27.4949C5.23816 27.6413 5.86597 27.7219 6.672 27.7601C7.01355 27.7749 10.4943 27.7855 13.9772 27.7855C17.4602 27.7855 20.9431 27.7813 21.2761 27.7643C22.2094 27.7204 22.7513 27.6477 23.3506 27.4928C25.0029 27.0665 26.3711 25.9465 27.1156 24.4107C27.49 23.6386 27.6798 22.8877 27.7657 21.798C27.7844 21.5604 27.7922 17.7726 27.7922 13.9898C27.7922 10.2064 27.7838 6.42558 27.7651 6.188C27.6781 5.08073 27.4883 4.33618 27.1018 3.54921C26.7847 2.905 26.4326 2.42391 25.9214 1.932C25.0092 1.0606 23.8934 0.5303 22.5638 0.338543C21.9197 0.245422 21.7914 0.217846 18.4951 0.21212L14.0067 0.21212Z" fill="url(#paint_radial_62_646_0)" fill-opacity="1.000000" fill-rule="nonzero"/>
		<path id="Vector" d="M14.0005 3.81818C11.2354 3.81818 10.8883 3.83027 9.80225 3.87969C8.71838 3.92933 7.97852 4.10093 7.33118 4.35272C6.6615 4.61278 6.09351 4.96066 5.52759 5.52681C4.96118 6.09275 4.61328 6.66081 4.35242 7.33027C4.09998 7.97787 3.92822 8.71796 3.87939 9.80148C3.83081 10.8875 3.81812 11.2348 3.81812 14C3.81812 16.7652 3.83044 17.1112 3.87964 18.1972C3.92944 19.2812 4.10107 20.021 4.35266 20.6684C4.61292 21.3381 4.96082 21.9062 5.52686 22.4721C6.09265 23.0385 6.66064 23.3872 7.32983 23.6473C7.97766 23.8991 8.71777 24.0707 9.80139 24.1203C10.8875 24.1697 11.2343 24.1818 13.9991 24.1818C16.7645 24.1818 17.1105 24.1697 18.1965 24.1203C19.2804 24.0707 20.0211 23.8991 20.6689 23.6473C21.3384 23.3872 21.9055 23.0385 22.4713 22.4721C23.0376 21.9062 23.3855 21.3381 23.6464 20.6687C23.8967 20.0211 24.0685 19.281 24.1194 18.1974C24.1682 17.1114 24.1809 16.7652 24.1809 14C24.1809 11.2348 24.1682 10.8878 24.1194 9.80169C24.0685 8.71775 23.8967 7.97787 23.6464 7.33048C23.3855 6.66081 23.0376 6.09275 22.4713 5.52681C21.9049 4.96045 21.3386 4.61257 20.6683 4.35272C20.0193 4.10093 19.2789 3.92933 18.1951 3.87969C17.109 3.83027 16.7633 3.81818 13.9973 3.81818L14.0005 3.81818ZM13.0872 5.65302C13.3582 5.6526 13.6606 5.65302 14.0005 5.65302C16.719 5.65302 17.0411 5.66278 18.1146 5.71157C19.1073 5.75697 19.6461 5.92284 20.005 6.06221C20.4801 6.24675 20.8188 6.46736 21.175 6.82372C21.5314 7.18008 21.752 7.51948 21.937 7.99463C22.0763 8.35312 22.2424 8.8919 22.2876 9.88463C22.3364 10.958 22.3469 11.2804 22.3469 13.9977C22.3469 16.7149 22.3364 17.0374 22.2876 18.1107C22.2422 19.1034 22.0763 19.6422 21.937 20.0007C21.7524 20.4758 21.5314 20.8142 21.175 21.1703C20.8187 21.5267 20.4803 21.7473 20.005 21.9318C19.6465 22.0718 19.1073 22.2373 18.1146 22.2827C17.0414 22.3315 16.719 22.3421 14.0005 22.3421C11.2817 22.3421 10.9596 22.3315 9.88635 22.2827C8.89355 22.2369 8.35486 22.071 7.99573 21.9316C7.52063 21.7471 7.18115 21.5265 6.82483 21.1701C6.46851 20.8138 6.24792 20.4752 6.06287 19.9998C5.92358 19.6414 5.75745 19.1026 5.71228 18.1098C5.66357 17.0365 5.65381 16.7141 5.65381 13.9951C5.65381 11.2761 5.66357 10.9554 5.71228 9.88208C5.75769 8.88936 5.92358 8.35057 6.06287 7.99166C6.24744 7.51651 6.46851 7.17712 6.82483 6.82075C7.18115 6.46439 7.52063 6.24378 7.99573 6.05881C8.35461 5.91881 8.89355 5.75336 9.88635 5.70775C10.8256 5.66533 11.1896 5.6526 13.0872 5.65048L13.0872 5.65302ZM19.4353 7.34363C18.7607 7.34363 18.2135 7.89027 18.2135 8.56503C18.2135 9.23957 18.7607 9.78684 19.4353 9.78684C20.1099 9.78684 20.6571 9.23957 20.6571 8.56503C20.6571 7.89048 20.1099 7.3432 19.4353 7.3432L19.4353 7.34363ZM14.0005 8.77121C11.1129 8.77121 8.77185 11.1124 8.77185 14C8.77185 16.8876 11.1129 19.2277 14.0005 19.2277C16.8879 19.2277 19.2283 16.8876 19.2283 14C19.2283 11.1124 16.8878 8.77121 14.0002 8.77121L14.0005 8.77121ZM14.0005 10.6061C15.8748 10.6061 17.3943 12.1255 17.3943 14C17.3943 15.8743 15.8748 17.3939 14.0005 17.3939C12.126 17.3939 10.6067 15.8743 10.6067 14C10.6067 12.1255 12.126 10.6061 14.0005 10.6061Z" fill="#F3F3F3" fill-opacity="1.000000" fill-rule="nonzero"/>
	</g>
</svg>
