<svg width="28.000000" height="28.000000" viewBox="0 0 28 28" fill="none" xmlns="http://www.w3.org/2000/svg" xmlns:xlink="http://www.w3.org/1999/xlink">
	<desc>
			Created with Pixso.
	</desc>
	<defs>
		<clipPath id="clip62_648">
			<rect id="linkedin-app 1" width="28.000000" height="28.000000" fill="white" fill-opacity="0"/>
		</clipPath>
	</defs>
	<rect id="linkedin-app 1" width="28.000000" height="28.000000" fill="#FFFFFF" fill-opacity="0"/>
	<g clip-path="url(#clip62_648)">
		<path id="Vector" d="M6.32324 0L21.6768 0C23.3523 0.00483322 24.9579 0.675686 26.1427 1.866C27.3274 3.05632 27.9952 4.66935 28 6.35271L28 21.6496C27.9946 23.3325 27.3265 24.945 26.1418 26.1348C24.9572 27.3246 23.3519 27.9952 21.6768 28L6.32324 28C4.64807 27.9952 3.04285 27.3246 1.85815 26.1348C0.673462 24.945 0.00537109 23.3325 0 21.6496L0 6.35271C0.00476074 4.66935 0.672607 3.05632 1.8573 1.866C3.04211 0.675686 4.64771 0.00483322 6.32324 0L6.32324 0Z" fill="#0A66C2" fill-opacity="1.000000" fill-rule="evenodd"/>
		<path id="Vector" d="M11.2086 10.8534L14.7474 10.8534L14.7474 12.6848L14.7975 12.6848C15.292 11.7966 16.4951 10.8534 18.293 10.8534C22.0277 10.8534 22.7181 13.1885 22.7181 16.2263L22.7181 22.65L19.0289 22.65L19.0289 16.9406C19.0289 15.6334 19.0016 13.9508 17.1104 13.9508C15.2191 13.9508 14.8955 15.3724 14.8955 16.8467L14.8955 22.6614L11.2086 22.6614L11.2086 10.8534ZM9.11462 7.27758C9.11462 7.65881 9.00208 8.03149 8.79126 8.34847C8.58044 8.66545 8.28076 8.91252 7.93018 9.05841C7.57959 9.2043 7.19385 9.24247 6.82166 9.1681C6.44946 9.09372 6.10767 8.91014 5.83936 8.64057C5.57092 8.37099 5.38818 8.02753 5.31421 7.65362C5.24023 7.27971 5.2782 6.89214 5.42334 6.53993C5.5686 6.18771 5.81458 5.88667 6.13 5.67487C6.44556 5.46306 6.81653 5.35001 7.19592 5.35001C7.70459 5.35062 8.19226 5.55389 8.552 5.91525C8.91162 6.27661 9.11401 6.76654 9.11462 7.27758ZM5.28186 10.8534L9.11462 10.8534L9.11462 22.65L5.28186 22.65L5.28186 10.8534Z" fill="#F3F3F3" fill-opacity="1.000000" fill-rule="evenodd"/>
	</g>
</svg>
