<svg width="24.000000" height="24.000000" viewBox="0 0 24 24" fill="none" xmlns="http://www.w3.org/2000/svg" xmlns:xlink="http://www.w3.org/1999/xlink">
	<desc>
			Created with Pixso.
	</desc>
	<defs>
		<clipPath id="clip62_634">
			<rect id="phone" width="24.000000" height="24.000000" fill="white" fill-opacity="0"/>
		</clipPath>
	</defs>
	<rect id="phone" width="24.000000" height="24.000000" fill="#FFFFFF" fill-opacity="0"/>
	<g clip-path="url(#clip62_634)">
		<path id="Vector" d="M21.9999 19.92C22.0011 20.1985 21.944 20.4742 21.8324 20.7293C21.7208 20.9845 21.5573 21.2136 21.3521 21.4019C21.1467 21.5901 20.9045 21.7335 20.6406 21.8227C20.3768 21.9119 20.0973 21.9451 19.8199 21.92C16.7428 21.5856 13.787 20.5341 11.1899 18.85C8.7738 17.3147 6.72522 15.2662 5.18994 12.85C3.49988 10.2412 2.44812 7.271 2.11987 4.18C2.09497 3.90347 2.12781 3.62476 2.21643 3.36163C2.30505 3.09849 2.44751 2.85669 2.63464 2.65162C2.8219 2.44656 3.04968 2.28271 3.30371 2.17052C3.55774 2.05833 3.83228 2.00026 4.10999 2L7.10999 2C7.59521 1.99522 8.06567 2.16708 8.43372 2.48354C8.80164 2.79999 9.04199 3.23945 9.10999 3.72C9.23657 4.68007 9.47144 5.62273 9.80994 6.53C9.94446 6.88792 9.97363 7.27692 9.8938 7.65088C9.81409 8.02485 9.62878 8.36811 9.35999 8.64L8.08997 9.91C9.51343 12.4135 11.5864 14.4864 14.09 15.91L15.36 14.64C15.6318 14.3711 15.9751 14.1859 16.349 14.1061C16.723 14.0263 17.1121 14.0555 17.47 14.19C18.3772 14.5286 19.3198 14.7634 20.2799 14.89C20.7657 14.9585 21.2094 15.2032 21.5265 15.5775C21.8436 15.9518 22.0121 16.4296 21.9999 16.92L21.9999 19.92Z" stroke="#F3F3F3" stroke-opacity="1.000000" stroke-width="2.000000" stroke-linejoin="round"/>
	</g>
</svg>
