<svg width="28.000000" height="28.000000" viewBox="0 0 28 28" fill="none" xmlns="http://www.w3.org/2000/svg" xmlns:xlink="http://www.w3.org/1999/xlink">
	<desc>
			Created with Pixso.
	</desc>
	<defs>
		<clipPath id="clip62_641">
			<rect id="twitter-app 1" width="28.000000" height="28.000000" fill="white" fill-opacity="0"/>
		</clipPath>
	</defs>
	<rect id="twitter-app 1" width="28.000000" height="28.000000" fill="#FFFFFF" fill-opacity="0"/>
	<g clip-path="url(#clip62_641)">
		<path id="Vector" d="M6.32324 0L21.6768 0C23.3523 0.00483322 24.9579 0.675686 26.1427 1.866C27.3274 3.05632 27.9952 4.66935 28 6.35271L28 21.6496C27.9946 23.3325 27.3265 24.945 26.1418 26.1348C24.9572 27.3246 23.3519 27.9952 21.6768 28L6.32324 28C4.64807 27.9952 3.04285 27.3246 1.85815 26.1348C0.673462 24.945 0.00537109 23.3325 0 21.6496L0 6.35271C0.00476074 4.66935 0.672607 3.05632 1.8573 1.866C3.04211 0.675686 4.64771 0.00483322 6.32324 0L6.32324 0Z" fill="#1CA1F1" fill-opacity="1.000000" fill-rule="evenodd"/>
		<path id="Vector" d="M23.3676 8.16352C22.667 8.47653 21.9233 8.68107 21.1617 8.77017C21.9626 8.2877 22.5631 7.53082 22.8525 6.63887C22.0978 7.0881 21.2726 7.40547 20.4121 7.57747C19.885 7.01334 19.2014 6.62127 18.45 6.45208C17.6985 6.2829 16.9137 6.34439 16.1974 6.6286C15.4811 6.9128 14.8662 7.40661 14.4326 8.04602C13.9989 8.68544 13.7665 9.44097 13.7653 10.2147C13.7655 10.5105 13.7983 10.8053 13.8633 11.0938C12.3354 11.0166 10.8409 10.6174 9.47681 9.92205C8.11255 9.22672 6.9093 8.25084 5.94495 7.0578C5.60303 7.64709 5.42297 8.31701 5.42322 8.9991C5.42371 9.63333 5.57983 10.2576 5.87793 10.8167C6.17603 11.3758 6.60681 11.8523 7.1322 12.2041C6.52209 12.1831 5.92554 12.0176 5.39124 11.721L5.39124 11.7714C5.38855 12.6648 5.69434 13.5314 6.25659 14.2236C6.81873 14.9158 7.60254 15.3906 8.47424 15.567C8.14368 15.6571 7.80286 15.7033 7.46033 15.7044C7.21716 15.7028 6.97461 15.6791 6.73572 15.6334C6.98169 16.3999 7.45972 17.0702 8.10315 17.5508C8.74646 18.0313 9.52307 18.2982 10.3246 18.3141C8.71143 19.5843 6.66309 20.1605 4.62793 19.9166C6.38525 21.0521 8.43115 21.6546 10.5205 21.6519C17.5844 21.6519 21.458 15.7685 21.458 10.6634C21.458 10.494 21.458 10.3292 21.4467 10.162C22.1996 9.61861 22.8488 8.94315 23.3629 8.16809L23.3676 8.16352Z" fill="#F3F3F3" fill-opacity="1.000000" fill-rule="evenodd"/>
	</g>
</svg>
